# Blender v2.78 (sub 0) OBJ File: 'Forest Assets.blend'
# www.blender.org
mtllib rock.mtl
o Norm_Rock_1_Icosphere.003
v 0.204061 0.613928 -0.366906
v -0.450318 0.615713 -0.086108
v 0.206498 1.108875 0.177303
v 0.795099 0.307491 -0.022288
v 0.414201 0.086451 -0.348305
v -0.364458 0.059438 -0.308019
v -0.427496 0.516949 0.613010
v 0.387140 0.261972 0.575940
v 0.602592 0.006191 0.118604
v -0.430045 -0.005362 -0.087064
v -0.761291 0.025802 0.169565
v -0.402847 0.040232 0.449339
v 0.237839 1.010800 -0.156384
v -0.161553 0.671864 -0.205153
v -0.157413 1.004531 0.009592
v -0.477018 0.291103 -0.209954
v -0.075447 0.269977 -0.363454
v 0.554585 0.537410 -0.207720
v 0.563254 0.737336 0.082472
v 0.376523 0.279753 -0.418619
v 0.708253 0.191955 -0.220619
v 0.039417 0.041219 -0.349465
v -0.636401 0.181621 0.051417
v -0.672984 0.037171 -0.075180
v -0.109754 0.835759 0.421403
v -0.459998 0.532317 0.209684
v 0.725871 0.248603 0.254848
v 0.307149 0.738497 0.468377
v 0.527302 0.035907 -0.146339
v 0.813574 0.074965 0.052123
v -0.399012 0.002853 -0.187497
v 0.037989 0.004965 -0.274394
v -0.641665 0.104432 0.365735
v -0.092512 0.559265 0.738935
v 0.645389 0.041994 0.365019
v 0.022928 0.000653 -0.024760
v -0.715222 0.000926 0.059464
v -0.430139 0.163498 0.623769
v -0.695832 0.016012 0.314505
v 0.052054 0.099557 0.614553
v 0.092171 0.009128 0.335486
v -0.530321 0.002159 0.161663
vn -0.2947 0.4672 -0.8336
vn -0.4145 0.3540 -0.8384
vn 0.4500 0.3883 -0.8042
vn 0.4498 0.3587 -0.8180
vn -0.1226 0.0897 -0.9884
vn -0.8705 0.2363 -0.4318
vn -0.4142 0.8244 0.3858
vn 0.8681 0.3949 0.3008
vn 0.4687 -0.7588 -0.4523
vn -0.0858 -0.8922 -0.4435
vn -0.9052 0.4158 0.0876
vn 0.0586 0.6266 0.7771
vn 0.9487 0.1622 0.2715
vn 0.1416 -0.9387 -0.3142
vn -0.2982 -0.8283 -0.4744
vn -0.7759 0.0250 0.6303
vn 0.2051 -0.1950 0.9591
vn 0.0516 -0.9895 0.1348
vn 0.0086 -0.9994 0.0337
vn -0.3186 -0.9445 0.0801
vn -0.1373 0.9468 -0.2912
vn -0.3392 0.5132 -0.7884
vn -0.4115 0.4979 -0.7634
vn -0.3378 0.2229 -0.9144
vn -0.3293 0.2841 -0.9005
vn -0.3517 0.2769 -0.8942
vn 0.7751 0.5092 -0.3740
vn 0.7434 0.5402 -0.3944
vn 0.6957 0.7042 -0.1416
vn 0.4548 -0.2248 -0.8617
vn 0.5453 0.2722 -0.7929
vn 0.7603 0.3584 -0.5417
vn -0.1065 -0.1139 -0.9878
vn -0.1177 -0.1194 -0.9858
vn 0.0432 -0.3341 -0.9416
vn -0.8416 0.4605 -0.2823
vn -0.8254 0.4756 -0.3041
vn -0.6038 0.0435 -0.7959
vn -0.6806 0.7280 0.0826
vn -0.7242 0.6046 0.3316
vn -0.8071 0.5746 0.1356
vn 0.6682 0.2688 0.6937
vn 0.7540 0.4269 0.4991
vn 0.6961 0.5509 0.4603
vn 0.2536 -0.9507 -0.1787
vn 0.4436 -0.7488 -0.4925
vn 0.9248 -0.0473 -0.3774
vn -0.0121 -0.9963 -0.0852
vn -0.0821 -0.8968 -0.4347
vn 0.1095 -0.8959 -0.4306
vn -0.9048 0.4165 0.0888
vn -0.9052 0.4160 0.0870
vn -0.7091 0.6874 0.1569
vn 0.4548 0.2680 0.8493
vn 0.1024 0.7529 0.6501
vn -0.3261 0.7041 0.6308
vn 0.3314 -0.9402 0.0791
vn 0.8809 -0.0961 0.4634
vn 0.6857 0.1160 0.7186
vn 0.0155 -0.9997 -0.0163
vn 0.0665 -0.9977 -0.0132
vn 0.0398 -0.9917 -0.1225
vn -0.9198 -0.1945 -0.3409
vn -0.2470 -0.9135 -0.3234
vn -0.0755 -0.9917 -0.1045
vn -0.1846 -0.8160 0.5478
vn -0.7811 0.1240 0.6120
vn -0.8641 0.2918 0.4100
vn -0.0979 -0.8199 0.5641
vn -0.0169 -0.2661 0.9638
vn -0.3551 0.0311 0.9343
vn 0.0115 -0.9508 0.3097
vn 0.0397 -0.9489 0.3132
vn 0.3111 -0.4417 0.8415
vn -0.0291 -0.9892 0.1438
vn 0.0049 -0.9997 0.0226
vn 0.0039 -0.9997 0.0228
vn 0.0271 -0.9925 0.1193
vn -0.0271 -0.9978 0.0611
vn -0.0082 -0.9996 0.0269
usemtl Norm_Rock
s off
f 1//1 14//1 13//1
f 2//2 14//2 16//2
f 1//3 13//3 18//3
f 1//4 18//4 20//4
f 1//5 20//5 17//5
f 2//6 16//6 23//6
f 3//7 15//7 25//7
f 4//8 19//8 27//8
f 5//9 21//9 29//9
f 6//10 22//10 31//10
f 2//11 23//11 26//11
f 3//12 25//12 28//12
f 4//13 27//13 30//13
f 5//14 29//14 32//14
f 6//15 31//15 24//15
f 7//16 33//16 38//16
f 8//17 34//17 40//17
f 9//18 35//18 41//18
f 10//19 36//19 42//19
f 11//20 37//20 39//20
f 13//21 15//21 3//21
f 13//22 14//22 15//22
f 14//23 2//23 15//23
f 16//24 17//24 6//24
f 16//25 14//25 17//25
f 14//26 1//26 17//26
f 18//27 19//27 4//27
f 18//28 13//28 19//28
f 13//29 3//29 19//29
f 20//30 21//30 5//30
f 20//31 18//31 21//31
f 18//32 4//32 21//32
f 17//33 22//33 6//33
f 17//34 20//34 22//34
f 20//35 5//35 22//35
f 23//36 24//36 11//36
f 23//37 16//37 24//37
f 16//38 6//38 24//38
f 25//39 26//39 7//39
f 25//40 15//40 26//40
f 15//41 2//41 26//41
f 27//42 28//42 8//42
f 27//43 19//43 28//43
f 19//44 3//44 28//44
f 29//45 30//45 9//45
f 29//46 21//46 30//46
f 21//47 4//47 30//47
f 31//48 32//48 10//48
f 31//49 22//49 32//49
f 22//50 5//50 32//50
f 26//51 33//51 7//51
f 26//52 23//52 33//52
f 23//53 11//53 33//53
f 28//54 34//54 8//54
f 28//55 25//55 34//55
f 25//56 7//56 34//56
f 30//57 35//57 9//57
f 30//58 27//58 35//58
f 27//59 8//59 35//59
f 32//60 36//60 10//60
f 32//61 29//61 36//61
f 29//62 9//62 36//62
f 24//63 37//63 11//63
f 24//64 31//64 37//64
f 31//65 10//65 37//65
f 38//66 39//66 12//66
f 38//67 33//67 39//67
f 33//68 11//68 39//68
f 40//69 38//69 12//69
f 40//70 34//70 38//70
f 34//71 7//71 38//71
f 41//72 40//72 12//72
f 41//73 35//73 40//73
f 35//74 8//74 40//74
f 42//75 41//75 12//75
f 42//76 36//76 41//76
f 36//77 9//77 41//77
f 39//78 42//78 12//78
f 39//79 37//79 42//79
f 37//80 10//80 42//80
